<svg width="35px" height="35px" viewBox="0 0 64 64" xml:space="preserve" xmlns="http://www.w3.org/2000/svg"><path d="M5.255 31.178C3.363 31.8 2 33.56 2 35.563v6.375a4.748 4.748 0 0 0 3.255 4.509V31.178z" fill="#ffffff" class="fill-3c4752"></path><path d="M6.75 30.187v16.122a3.764 3.764 0 0 0 3.753 3.753h3.125a4.122 4.122 0 0 0 4.122-4.122V31.809a4.122 4.122 0 0 0-4.122-4.122H9.25a2.507 2.507 0 0 0-2.5 2.5zM54.75 27.687h-4.378a4.122 4.122 0 0 0-4.122 4.122V45.94a4.122 4.122 0 0 0 4.122 4.122c-.067 3.942-3.289 7.125-7.247 7.125h-4.143c-.114-.872-.817-1.5-1.732-1.5h-8.5a1.75 1.75 0 0 0-1.75 1.75v2.875c0 .967.784 1.75 1.75 1.75h8.5c1 0 1.75-.75 1.75-1.75h4.125a10.347 10.347 0 0 0 10.372-10.25 3.764 3.764 0 0 0 3.753-3.753V30.187c0-1.375-1.125-2.5-2.5-2.5z" fill="#d4d4d4" class="fill-2f7abf"></path><path d="M59.125 31.312a5.231 5.231 0 0 0-.38-.135v15.27a4.495 4.495 0 0 0 1.88-1.135c.875-.75 1.375-2 1.375-3.25v-6.375c0-2-1.125-3.624-2.875-4.375zM48.5 24.812v1.38h6.25c.084 0 .167.003.25.009v-1.388C55 12.187 44.625 1.937 32 1.937S9 12.187 9 24.812V26.2c.083-.005.166-.009.25-.009h6.25v-1.38c0-9 7.375-16.375 16.5-16.375s16.5 7.376 16.5 16.376z" fill="#ffffff" class="fill-3c4752"></path></svg>