<svg width="40px" height="40px" viewBox="0 0 64 64" xmlns="http://www.w3.org/2000/svg"><path d="M48.3 37.87a11.508 11.508 0 0 1 1.87.16V12.25a5.8 5.8 0 0 0-5.79-5.79H13.15a5.8 5.8 0 0 0-5.79 5.79v33.71a5.8 5.8 0 0 0 5.79 5.79h24.12A11.294 11.294 0 0 1 48.3 37.87Zm-32.52-24h25.96a1.5 1.5 0 0 1 0 3H15.78a1.5 1.5 0 1 1 0-3Zm0 9.16h25.96a1.5 1.5 0 1 1 0 3H15.78a1.5 1.5 0 0 1 0-3Zm0 9.15h25.96a1.5 1.5 0 0 1 0 3H15.78a1.5 1.5 0 0 1 0-3Zm18.69 12.16H15.78a1.5 1.5 0 0 1 0-3h18.69a1.5 1.5 0 0 1 0 3Zm13.83-3.47a8.335 8.335 0 1 0 8.34 8.33 8.337 8.337 0 0 0-8.34-8.33Zm3.98 9.83H48.3a1.5 1.5 0 0 1-1.5-1.5v-4.57a1.5 1.5 0 0 1 3 0v3.07h2.48a1.5 1.5 0 0 1 0 3Z" class="fill-222222"></path></svg>