<svg width="40px" height="40px" viewBox="0 0 60 60" xml:space="preserve" xmlns="http://www.w3.org/2000/svg" enable-background="new 0 0 60 60"><path d="M21.71 21.706c1.71 4.729 4.931 7.76 8.29 7.76 3.36 0 6.58-3.031 8.29-7.76.83-.49 2.34-1.95 2.54-4 .17-1.75.44-4.62-1.61-5.11-.85-4.821-4.17-7.571-9.22-7.571s-8.37 2.75-9.22 7.57c-2.05.49-1.78 3.36-1.61 5.11.2 2.05 1.71 3.51 2.54 4z" fill="#ffffff" class="fill-000000"></path><path d="M13.94 39.076v.3h32.12v-.3c0-5.48-3.83-10.08-8.96-11.261-1.99 2.33-4.48 3.65-7.1 3.65-2.62 0-5.11-1.32-7.1-3.65-5.13 1.18-8.96 5.78-8.96 11.26zM53.5 53.975v-11.6c0-.56-.45-1-1-1h-45c-.55 0-1 .44-1 1v11.6c0 .56.45 1 1 1h45c.55 0 1-.44 1-1zm-31.757-4.8h-.666l.471.471a1 1 0 0 1-1.414 1.414l-.47-.47v.664a1 1 0 1 1-2 0v-.664l-.47.47a.997.997 0 0 1-1.414 0 1 1 0 0 1 0-1.414l.471-.47h-.666a1 1 0 1 1 0-2h.665l-.47-.47a1 1 0 0 1 1.414-1.415l.47.47v-.665a.999.999 0 1 1 2 0v.665l.47-.47a1 1 0 0 1 1.414 1.414l-.47.47h.665a1 1 0 1 1 0 2zm11.336 0h-.665l.471.471a1 1 0 0 1-1.414 1.414L31 50.59v.664a1 1 0 1 1-2 0v-.664l-.47.47a.997.997 0 0 1-1.414 0 1 1 0 0 1 0-1.414l.471-.47h-.665a1 1 0 1 1 0-2h.664l-.47-.47a1 1 0 0 1 1.414-1.415l.47.47v-.665a.999.999 0 1 1 2 0v.666l.471-.47a1 1 0 0 1 1.414 1.413l-.47.47h.664a1 1 0 1 1 0 2zm11.337 0h-.666l.471.471a1 1 0 0 1-1.414 1.414l-.47-.47v.664a.999.999 0 1 1-2 0v-.665l-.471.471a.997.997 0 0 1-1.414 0 1 1 0 0 1 0-1.414l.471-.47h-.665a1 1 0 1 1 0-2h.664l-.47-.47a1 1 0 0 1 1.414-1.415l.471.471v-.666a1 1 0 1 1 2 0v.665l.47-.47a1 1 0 0 1 1.414 1.414l-.47.47h.665a1 1 0 1 1 0 2z" fill="#ffffff" class="fill-000000"></path></svg>