<svg width="40px" height="40px" viewBox="0 0 100 100" xml:space="preserve" xmlns="http://www.w3.org/2000/svg"><path d="M33.018 81.377v-1.604a4.656 4.656 0 0 1 2.736-4.254 4.628 4.628 0 0 1 1.079-4.953l2.319-2.316a4.693 4.693 0 0 1 4.941-1.068 4.647 4.647 0 0 1 4.264-2.748h3.283a4.657 4.657 0 0 1 4.259 2.745 4.672 4.672 0 0 1 1.648-.299c1.256 0 2.432.491 3.297 1.365l2.325 2.321a4.653 4.653 0 0 1 1.071 4.945 4.646 4.646 0 0 1 2.742 4.262v1.604c9.917-.224 17.285-1.768 17.285-12.424 0-11.789-9.02-21.47-20.538-22.523-.09 4.126-6.202 7.452-13.729 7.452-7.529 0-13.641-3.326-13.73-7.452-11.517 1.053-20.539 10.734-20.539 22.523.001 10.656 7.37 12.2 17.287 12.424z" class="fill-000000"></path><path d="M50 5c-8.667 0-15.846 6.705-17.111 15.456a19.225 19.225 0 0 0-.162 3.9c.033.55.084 1.093.163 1.628.012.164.026.325.042.487C34.021 38.823 41.248 48.365 50 48.365c8.75 0 15.977-9.542 17.07-21.893l.04-.487c.078-.536.13-1.078.161-1.628a19.37 19.37 0 0 0-.161-3.9C65.845 11.705 58.666 5 50 5zM63.587 79.773c0-.657-.493-1.201-1.115-1.261l-2.049-.343a10.869 10.869 0 0 0-.758-1.833l1.188-1.666a1.265 1.265 0 0 0-.086-1.701l-2.323-2.322a1.257 1.257 0 0 0-.897-.371c-.293 0-.579.1-.779.269l-1.691 1.207a10.867 10.867 0 0 0-1.833-.761l-.336-2.019a1.268 1.268 0 0 0-1.268-1.143h-3.283c-.654 0-1.198.492-1.259 1.113l-.341 2.048c-.635.197-1.248.451-1.835.761l-1.666-1.192a1.26 1.26 0 0 0-.797-.275 1.28 1.28 0 0 0-.904.363l-2.322 2.322a1.253 1.253 0 0 0-.105 1.678l1.208 1.689a10.873 10.873 0 0 0-.759 1.833l-2.02.337a1.267 1.267 0 0 0-1.144 1.267v3.283c0 .658.492 1.201 1.115 1.261l2.049.343c.194.629.452 1.244.759 1.833l-1.187 1.665a1.263 1.263 0 0 0 .083 1.703l2.322 2.321c.24.238.558.373.898.373.293 0 .577-.103.779-.271l1.69-1.207c.588.311 1.2.565 1.835.761l.335 2.019A1.27 1.27 0 0 0 48.357 95h3.283c.659 0 1.201-.491 1.261-1.112l.343-2.049c.632-.195 1.247-.45 1.833-.761l1.665 1.188c.227.188.514.278.801.278.332 0 .663-.123.902-.363l2.321-2.321c.465-.463.503-1.195.106-1.679l-1.207-1.688c.307-.586.562-1.201.758-1.836l2.017-.34a1.26 1.26 0 0 0 1.147-1.261v-3.283zm-13.588 7.075a5.44 5.44 0 0 1-5.434-5.435 5.44 5.44 0 0 1 5.434-5.433 5.44 5.44 0 0 1 5.436 5.433 5.44 5.44 0 0 1-5.436 5.435z" class="fill-000000"></path></svg>