<?xml version="1.0" encoding="UTF-8"?>
<svg xmlns="http://www.w3.org/2000/svg" xmlns:xlink="http://www.w3.org/1999/xlink" width="39px" height="32px" viewBox="0 0 39 39" version="1.1">
<g id="surface1">
<path style=" stroke:none;fill-rule:nonzero;fill:rgb(23.137255%,69.803922%,52.941176%);fill-opacity:1;" d="M 34.125 11.558594 L 34.125 31.058594 C 34.132812 31.730469 33.597656 32.285156 32.925781 32.296875 L 1.199219 32.296875 C 0.882812 32.300781 0.574219 32.171875 0.347656 31.949219 C 0.125 31.722656 -0.00390625 31.414062 0 31.097656 L 0 11.597656 C -0.0078125 10.925781 0.527344 10.371094 1.199219 10.359375 L 32.925781 10.359375 C 33.242188 10.355469 33.550781 10.484375 33.777344 10.707031 C 34 10.933594 34.128906 11.242188 34.125 11.558594 Z M 34.125 11.558594 "/>
<path style=" stroke:none;fill-rule:nonzero;fill:rgb(19.607843%,58.823529%,42.745098%);fill-opacity:1;" d="M 34.125 11.558594 L 34.125 29.859375 L 3.636719 29.859375 C 3.320312 29.863281 3.011719 29.734375 2.785156 29.511719 C 2.5625 29.285156 2.433594 28.976562 2.4375 28.660156 L 2.4375 10.359375 L 32.925781 10.359375 C 33.242188 10.355469 33.550781 10.484375 33.777344 10.707031 C 34 10.933594 34.128906 11.242188 34.125 11.558594 Z M 34.125 11.558594 "/>
<path style=" stroke:none;fill-rule:nonzero;fill:rgb(23.137255%,69.803922%,52.941176%);fill-opacity:1;" d="M 37.800781 5.484375 L 6.074219 5.484375 C 5.402344 5.496094 4.867188 6.050781 4.875 6.722656 L 4.875 26.222656 C 4.871094 26.539062 5 26.847656 5.222656 27.074219 C 5.449219 27.296875 5.757812 27.425781 6.074219 27.421875 L 37.800781 27.421875 C 38.472656 27.410156 39.007812 26.855469 39 26.183594 L 39 6.683594 C 39.003906 6.367188 38.875 6.058594 38.652344 5.832031 C 38.425781 5.609375 38.117188 5.480469 37.800781 5.484375 Z M 37.800781 5.484375 "/>
<path style=" stroke:none;fill-rule:nonzero;fill:rgb(24.313725%,76.078431%,58.431373%);fill-opacity:1;" d="M 21.9375 7.921875 L 36.5625 7.921875 L 36.5625 24.984375 L 21.9375 24.984375 "/>
<path style=" stroke:none;fill-rule:nonzero;fill:rgb(23.137255%,69.803922%,52.941176%);fill-opacity:1;" d="M 36.5625 11.558594 C 34.609375 11.433594 33.050781 9.875 32.925781 7.921875 L 36.5625 7.921875 Z M 36.5625 11.558594 "/>
<path style=" stroke:none;fill-rule:nonzero;fill:rgb(23.137255%,69.803922%,52.941176%);fill-opacity:1;" d="M 36.5625 24.984375 L 32.925781 24.984375 C 33.046875 23.023438 34.601562 21.453125 36.5625 21.308594 Z M 36.5625 24.984375 "/>
<path style=" stroke:none;fill-rule:nonzero;fill:rgb(24.313725%,76.078431%,58.431373%);fill-opacity:1;" d="M 21.9375 24.984375 L 7.3125 24.984375 L 7.3125 7.921875 L 21.9375 7.921875 "/>
<path style=" stroke:none;fill-rule:nonzero;fill:rgb(23.137255%,69.803922%,52.941176%);fill-opacity:1;" d="M 7.3125 21.347656 C 9.265625 21.472656 10.824219 23.03125 10.949219 24.984375 L 7.3125 24.984375 Z M 7.3125 21.347656 "/>
<path style=" stroke:none;fill-rule:nonzero;fill:rgb(23.137255%,69.803922%,52.941176%);fill-opacity:1;" d="M 7.3125 7.921875 L 10.949219 7.921875 C 10.828125 9.882812 9.273438 11.453125 7.3125 11.597656 Z M 7.3125 7.921875 "/>
<path style=" stroke:none;fill-rule:nonzero;fill:rgb(19.607843%,58.823529%,42.745098%);fill-opacity:1;" d="M 28.640625 16.453125 C 28.640625 20.15625 25.640625 23.15625 21.9375 23.15625 C 18.234375 23.15625 15.234375 20.15625 15.234375 16.453125 C 15.234375 12.75 18.234375 9.75 21.9375 9.75 C 25.640625 9.75 28.640625 12.75 28.640625 16.453125 Z M 28.640625 16.453125 "/>
<path style=" stroke:none;fill-rule:nonzero;fill:rgb(100%,100%,100%);fill-opacity:1;" d="M 24.757812 18.097656 C 24.757812 16.789062 23.382812 16.199219 22.195312 15.804688 C 21.199219 15.46875 20.746094 15.144531 20.746094 14.664062 C 20.746094 14.339844 21.125 13.953125 21.824219 13.953125 C 22.425781 14.023438 23.007812 14.214844 23.53125 14.511719 C 23.683594 14.578125 23.863281 14.527344 23.957031 14.390625 L 24.425781 13.8125 C 24.464844 13.761719 24.480469 13.691406 24.464844 13.628906 C 24.453125 13.5625 24.410156 13.507812 24.351562 13.476562 C 23.796875 13.152344 23.183594 12.9375 22.546875 12.847656 L 22.546875 11.882812 C 22.546875 11.714844 22.410156 11.578125 22.242188 11.578125 L 21.632812 11.578125 C 21.464844 11.578125 21.328125 11.714844 21.328125 11.882812 L 21.328125 12.835938 C 19.792969 13.019531 19.136719 13.9375 19.136719 14.746094 C 19.136719 15.945312 20.292969 16.554688 21.445312 16.941406 C 22.476562 17.285156 23.003906 17.640625 23.003906 18.160156 C 23.003906 18.597656 22.523438 18.941406 21.886719 18.941406 C 21.230469 18.867188 20.597656 18.652344 20.035156 18.3125 C 19.898438 18.226562 19.71875 18.257812 19.617188 18.382812 L 19.175781 19.011719 C 19.066406 19.175781 19.125 19.226562 19.234375 19.316406 C 19.851562 19.753906 20.574219 20.015625 21.328125 20.074219 L 21.328125 21.023438 C 21.328125 21.191406 21.464844 21.328125 21.632812 21.328125 L 22.242188 21.328125 C 22.410156 21.328125 22.546875 21.191406 22.546875 21.023438 L 22.546875 20.066406 C 23.917969 19.871094 24.757812 19.015625 24.757812 18.097656 Z M 24.757812 18.097656 "/>
</g>
</svg>
