<svg width="41" height="25" xmlns="http://www.w3.org/2000/svg">

 <g>
  <title>background</title>
  <rect fill="none" id="canvas_background" height="27" width="43" y="-1" x="-1"/>
 </g>
 <g>
  <title>Layer 1</title>
  <path fill="#000000" id="svg_1" d="m40.470731,12.47292l-3.057643,-1.414819c0,0 -2.11313,-2.075116 -2.921125,-2.857709c-0.531393,-0.51469 -1.081031,-0.718577 -1.734682,-0.718577c-0.630514,0 -1.568176,0 -2.394974,0l0.477289,-3.393514l-18.363192,0l-1.924745,13.685613l3.303417,0l0.666513,1.369843l2.192049,0c0.102965,1.613457 1.634792,2.899573 3.50795,2.899573c1.559718,0 2.884007,-0.891402 3.34382,-2.120886l7.877579,0c0.459814,1.229423 1.784103,2.120886 3.34382,2.120886c1.671071,0 3.070784,-1.023278 3.427353,-2.389032l1.318277,-0.51048l0.938291,-6.670897zm-20.249141,7.666348c-0.737254,0 -1.336871,-0.5236 -1.336871,-1.16736s0.599617,-1.16736 1.336871,-1.16736c0.737533,0 1.33743,0.5236 1.33743,1.16736s-0.599897,1.16736 -1.33743,1.16736zm10.080602,-11.492412l2.150597,0c0.143928,0 0.648758,0.034907 1.11025,0.481431c0.42703,0.413693 1.25963,1.228874 1.902097,1.85878l-0.854689,0.607388l-4.722772,0l0.414517,-2.9476zm4.484617,11.492412c-0.737254,0 -1.337151,-0.5236 -1.337151,-1.16736s0.599897,-1.16736 1.337151,-1.16736s1.337151,0.5236 1.337151,1.16736s-0.599897,1.16736 -1.337151,1.16736zm-28.964423,-4.480625l3.428192,0l-0.185379,1.318154l-2.582031,0l-0.660781,-1.318154zm-2.697229,-5.378496l6.881758,0l-0.185379,1.318154l-6.035597,0l-0.660781,-1.318154zm1.348335,2.689278l5.155255,0l-0.185379,1.318154l-4.308814,0l-0.661061,-1.318154zm-2.69695,-5.378557l8.608541,0l-0.1851,1.318154l-7.762381,0l-0.661061,-1.318154zm8.986989,-2.689462l-0.185379,1.318154l-9.489164,0l-0.661061,-1.318154l10.335604,0z"/>
 </g>
</svg>