<?xml version="1.0" encoding="UTF-8"?>
<svg xmlns="http://www.w3.org/2000/svg" xmlns:xlink="http://www.w3.org/1999/xlink" width="39px" height="21px" viewBox="0 0 38 21" version="1.1">
<g id="surface1">
<path style=" stroke:none;fill-rule:nonzero;fill:rgb(0%,0%,0%);fill-opacity:1;" d="M 28.800781 2.703125 L 9.800781 2.703125 L 6.910156 16.394531 L 25.910156 16.398438 Z M 28.800781 2.703125 "/>
<path style=" stroke:none;fill-rule:nonzero;fill:rgb(0%,0%,0%);fill-opacity:1;" d="M 34.886719 5.816406 L 29.292969 5.816406 C 28.660156 5.816406 28.035156 6.335938 27.898438 6.980469 L 26.042969 15.773438 L 7.042969 15.773438 L 6.515625 18.261719 L 25.515625 18.265625 L 34.171875 18.265625 C 34.808594 18.265625 35.433594 17.742188 35.570312 17.097656 L 37.292969 8.929688 C 37.65625 7.210938 36.578125 5.816406 34.886719 5.816406 Z M 34.886719 5.816406 "/>
<path style=" stroke:none;fill-rule:nonzero;fill:rgb(95.686275%,95.686275%,95.686275%);fill-opacity:1;" d="M 36.769531 11.417969 L 30.027344 11.417969 L 31.207031 5.816406 L 34.886719 5.816406 C 36.578125 5.816406 37.65625 7.210938 37.292969 8.929688 Z M 36.769531 11.417969 "/>
<path style=" stroke:none;fill-rule:nonzero;fill:rgb(0%,0%,0%);fill-opacity:1;" d="M 30.582031 16.382812 C 29.75 15.484375 28.175781 15.597656 27.070312 16.636719 C 25.964844 17.675781 25.746094 19.25 26.578125 20.148438 C 27.414062 21.046875 28.984375 20.933594 30.089844 19.894531 C 31.195312 18.855469 31.417969 17.28125 30.582031 16.382812 Z M 30.582031 16.382812 "/>
<path style=" stroke:none;fill-rule:nonzero;fill:rgb(0%,0%,0%);fill-opacity:1;" d="M 14.035156 16.382812 C 13.199219 15.480469 11.628906 15.59375 10.523438 16.636719 C 9.417969 17.675781 9.199219 19.246094 10.03125 20.148438 C 10.867188 21.046875 12.4375 20.933594 13.542969 19.894531 C 14.648438 18.851562 14.867188 17.28125 14.035156 16.382812 Z M 14.035156 16.382812 "/>
<path style=" stroke:none;fill-rule:nonzero;fill:rgb(100%,100%,100%);fill-opacity:1;" d="M 9.671875 12.660156 C 9.628906 12.660156 9.585938 12.652344 9.542969 12.644531 C 9.210938 12.574219 8.996094 12.246094 9.066406 11.910156 L 10.117188 6.929688 C 10.179688 6.644531 10.429688 6.4375 10.71875 6.4375 L 13.171875 6.4375 C 13.511719 6.4375 13.789062 6.714844 13.789062 7.058594 C 13.789062 7.402344 13.511719 7.679688 13.171875 7.679688 L 11.21875 7.679688 L 10.269531 12.167969 C 10.210938 12.457031 9.953125 12.660156 9.671875 12.660156 Z M 9.671875 12.660156 "/>
<path style=" stroke:none;fill-rule:nonzero;fill:rgb(100%,100%,100%);fill-opacity:1;" d="M 12.035156 10.167969 L 10.195312 10.167969 C 9.855469 10.167969 9.578125 9.890625 9.578125 9.546875 C 9.578125 9.207031 9.855469 8.929688 10.195312 8.929688 L 12.035156 8.929688 C 12.375 8.929688 12.648438 9.207031 12.648438 9.546875 C 12.648438 9.890625 12.375 10.167969 12.035156 10.167969 Z M 12.035156 10.167969 "/>
<path style=" stroke:none;fill-rule:nonzero;fill:rgb(100%,100%,100%);fill-opacity:1;" d="M 15.710938 10.167969 L 14.484375 10.167969 C 14.300781 10.167969 14.125 10.085938 14.007812 9.9375 C 13.890625 9.792969 13.84375 9.601562 13.882812 9.421875 L 14.410156 6.929688 C 14.46875 6.644531 14.71875 6.4375 15.011719 6.4375 L 16.238281 6.4375 C 16.738281 6.4375 17.195312 6.652344 17.492188 7.019531 C 17.796875 7.398438 17.910156 7.914062 17.800781 8.433594 C 17.597656 9.40625 16.675781 10.167969 15.710938 10.167969 Z M 15.710938 8.929688 C 16.097656 8.929688 16.511719 8.578125 16.597656 8.175781 C 16.628906 8.023438 16.609375 7.890625 16.539062 7.800781 C 16.457031 7.699219 16.328125 7.679688 16.238281 7.679688 L 15.507812 7.679688 L 15.246094 8.929688 Z M 15.710938 8.929688 "/>
<path style=" stroke:none;fill-rule:nonzero;fill:rgb(100%,100%,100%);fill-opacity:1;" d="M 13.960938 12.660156 C 13.917969 12.660156 13.875 12.652344 13.832031 12.644531 C 13.5 12.574219 13.285156 12.246094 13.359375 11.910156 L 13.882812 9.421875 C 13.953125 9.085938 14.28125 8.871094 14.613281 8.941406 C 14.945312 9.015625 15.15625 9.34375 15.085938 9.679688 L 14.5625 12.167969 C 14.5 12.460938 14.246094 12.660156 13.960938 12.660156 Z M 13.960938 12.660156 "/>
<path style=" stroke:none;fill-rule:nonzero;fill:rgb(100%,100%,100%);fill-opacity:1;" d="M 16.410156 12.660156 C 16.140625 12.660156 15.894531 12.480469 15.820312 12.207031 L 15.117188 9.71875 C 15.027344 9.386719 15.214844 9.046875 15.542969 8.953125 C 15.871094 8.859375 16.210938 9.050781 16.304688 9.378906 L 17.003906 11.871094 C 17.097656 12.199219 16.90625 12.542969 16.578125 12.636719 C 16.523438 12.652344 16.464844 12.660156 16.410156 12.660156 Z M 16.410156 12.660156 "/>
<path style=" stroke:none;fill-rule:nonzero;fill:rgb(100%,100%,100%);fill-opacity:1;" d="M 20.703125 12.660156 L 18.25 12.660156 C 18.0625 12.660156 17.886719 12.574219 17.773438 12.429688 C 17.65625 12.285156 17.609375 12.09375 17.648438 11.910156 L 18.699219 6.929688 C 18.757812 6.644531 19.011719 6.441406 19.300781 6.441406 L 21.753906 6.441406 C 22.09375 6.441406 22.367188 6.71875 22.367188 7.058594 C 22.367188 7.402344 22.09375 7.679688 21.753906 7.679688 L 19.800781 7.679688 L 19.011719 11.417969 L 20.703125 11.417969 C 21.042969 11.417969 21.316406 11.695312 21.316406 12.039062 C 21.316406 12.382812 21.042969 12.660156 20.703125 12.660156 Z M 20.703125 12.660156 "/>
<path style=" stroke:none;fill-rule:nonzero;fill:rgb(100%,100%,100%);fill-opacity:1;" d="M 21.226562 10.167969 L 18.773438 10.167969 C 18.433594 10.167969 18.160156 9.890625 18.160156 9.550781 C 18.160156 9.207031 18.4375 8.929688 18.777344 8.929688 L 21.226562 8.929688 C 21.566406 8.929688 21.84375 9.207031 21.84375 9.550781 C 21.84375 9.890625 21.566406 10.167969 21.226562 10.167969 Z M 21.226562 10.167969 "/>
<path style=" stroke:none;fill-rule:nonzero;fill:rgb(100%,100%,100%);fill-opacity:1;" d="M 24.992188 12.660156 L 22.539062 12.660156 C 22.355469 12.660156 22.179688 12.574219 22.0625 12.429688 C 21.945312 12.285156 21.898438 12.09375 21.9375 11.910156 L 22.988281 6.929688 C 23.050781 6.644531 23.300781 6.441406 23.589844 6.441406 L 26.042969 6.441406 C 26.382812 6.441406 26.65625 6.71875 26.65625 7.058594 C 26.65625 7.402344 26.382812 7.679688 26.042969 7.679688 L 24.089844 7.679688 L 23.300781 11.417969 L 24.992188 11.417969 C 25.332031 11.417969 25.605469 11.695312 25.605469 12.039062 C 25.605469 12.382812 25.332031 12.660156 24.992188 12.660156 Z M 24.992188 12.660156 "/>
<path style=" stroke:none;fill-rule:nonzero;fill:rgb(100%,100%,100%);fill-opacity:1;" d="M 25.515625 10.167969 L 23.066406 10.167969 C 22.726562 10.167969 22.449219 9.890625 22.449219 9.550781 C 22.449219 9.207031 22.726562 8.929688 23.066406 8.929688 L 25.515625 8.929688 C 25.855469 8.929688 26.132812 9.207031 26.132812 9.550781 C 26.132812 9.890625 25.855469 10.167969 25.515625 10.167969 Z M 25.515625 10.167969 "/>
<path style=" stroke:none;fill-rule:nonzero;fill:rgb(0%,0%,0%);fill-opacity:1;" d="M 7.210938 3.320312 L 1.671875 3.320312 C 1.332031 3.320312 1.054688 3.042969 1.054688 2.703125 C 1.054688 2.359375 1.332031 2.082031 1.671875 2.082031 L 7.210938 2.082031 C 7.550781 2.082031 7.824219 2.359375 7.824219 2.703125 C 7.824219 3.042969 7.550781 3.320312 7.210938 3.320312 Z M 7.210938 3.320312 "/>
<path style=" stroke:none;fill-rule:nonzero;fill:rgb(0%,0%,0%);fill-opacity:1;" d="M 5.980469 6.421875 L 1.671875 6.421875 C 1.332031 6.421875 1.054688 6.144531 1.054688 5.800781 C 1.054688 5.457031 1.332031 5.179688 1.671875 5.179688 L 5.980469 5.179688 C 6.320312 5.179688 6.59375 5.457031 6.59375 5.800781 C 6.59375 6.144531 6.320312 6.421875 5.980469 6.421875 Z M 5.980469 6.421875 "/>
<path style=" stroke:none;fill-rule:nonzero;fill:rgb(0%,0%,0%);fill-opacity:1;" d="M 5.363281 9.519531 L 1.671875 9.519531 C 1.332031 9.519531 1.054688 9.242188 1.054688 8.902344 C 1.054688 8.558594 1.332031 8.28125 1.671875 8.28125 L 5.363281 8.28125 C 5.703125 8.28125 5.980469 8.558594 5.980469 8.902344 C 5.980469 9.242188 5.703125 9.519531 5.363281 9.519531 Z M 5.363281 9.519531 "/>
<path style=" stroke:none;fill-rule:nonzero;fill:rgb(0%,0%,0%);fill-opacity:1;" d="M 4.75 12.621094 L 1.671875 12.621094 C 1.332031 12.621094 1.054688 12.34375 1.054688 12 C 1.054688 11.65625 1.332031 11.378906 1.671875 11.378906 L 4.75 11.378906 C 5.089844 11.378906 5.363281 11.65625 5.363281 12 C 5.363281 12.34375 5.089844 12.621094 4.75 12.621094 Z M 4.75 12.621094 "/>
<path style=" stroke:none;fill-rule:nonzero;fill:rgb(0%,0%,0%);fill-opacity:1;" d="M 4.132812 15.71875 L 1.671875 15.71875 C 1.332031 15.71875 1.054688 15.441406 1.054688 15.101562 C 1.054688 14.757812 1.332031 14.480469 1.671875 14.480469 L 4.132812 14.480469 C 4.472656 14.480469 4.75 14.757812 4.75 15.101562 C 4.75 15.441406 4.472656 15.71875 4.132812 15.71875 Z M 4.132812 15.71875 "/>
<path style=" stroke:none;fill-rule:nonzero;fill:rgb(0%,0%,0%);fill-opacity:1;" d="M 3.515625 18.820312 L 1.671875 18.820312 C 1.332031 18.820312 1.054688 18.542969 1.054688 18.199219 C 1.054688 17.855469 1.332031 17.578125 1.671875 17.578125 L 3.515625 17.578125 C 3.855469 17.578125 4.132812 17.855469 4.132812 18.199219 C 4.132812 18.542969 3.855469 18.820312 3.515625 18.820312 Z M 3.515625 18.820312 "/>
<path style=" stroke:none;fill-rule:nonzero;fill:rgb(100%,100%,100%);fill-opacity:1;" d="M 30.304688 16.335938 C 29.554688 15.546875 28.195312 15.695312 27.269531 16.664062 C 26.339844 17.632812 26.195312 19.058594 26.945312 19.84375 C 27.695312 20.628906 29.054688 20.484375 29.980469 19.515625 C 30.910156 18.546875 31.054688 17.121094 30.304688 16.335938 Z M 30.304688 16.335938 "/>
<path style=" stroke:none;fill-rule:nonzero;fill:rgb(100%,100%,100%);fill-opacity:1;" d="M 13.695312 16.335938 C 12.945312 15.546875 11.585938 15.695312 10.660156 16.664062 C 9.734375 17.632812 9.589844 19.058594 10.335938 19.84375 C 11.085938 20.628906 12.445312 20.484375 13.375 19.515625 C 14.300781 18.546875 14.445312 17.121094 13.695312 16.335938 Z M 13.695312 16.335938 "/>
</g>
</svg>
