<?xml version="1.0" encoding="UTF-8"?>
<svg xmlns="http://www.w3.org/2000/svg" xmlns:xlink="http://www.w3.org/1999/xlink" width="39" height="32" viewBox="0 0 117 96" version="1.1">
<defs>
<clipPath id="clip1">
  <path d="M 10 18 L 107 18 L 107 78 L 10 78 Z M 10 18 "/>
</clipPath>
<clipPath id="clip2">
  <path d="M 10.5 22.5 C 10.5 20.023438 12.523438 18 15 18 L 102 18 C 104.476562 18 106.5 20.023438 106.5 22.5 L 106.5 73.5 C 106.5 75.976562 104.476562 78 102 78 L 15 78 C 12.523438 78 10.5 75.976562 10.5 73.5 Z M 10.5 22.5 "/>
</clipPath>
<clipPath id="clip3">
  <path d="M 34 62 L 86 62 L 86 69 L 34 69 Z M 34 62 "/>
</clipPath>
<clipPath id="clip4">
  <path d="M 41.476562 68.851562 L 41.476562 66 C 41.476562 64.949219 40.875 64.273438 39.75 64.199219 C 39.148438 64.199219 38.625 64.351562 38.175781 65.023438 C 37.875 64.5 37.351562 64.199219 36.675781 64.199219 C 36.226562 64.199219 35.699219 64.351562 35.324219 64.875 L 35.324219 64.351562 L 34.425781 64.351562 L 34.425781 68.851562 L 35.324219 68.851562 L 35.324219 66.300781 C 35.324219 65.550781 35.773438 65.101562 36.449219 65.101562 C 37.125 65.101562 37.425781 65.550781 37.425781 66.300781 L 37.425781 68.851562 L 38.324219 68.851562 L 38.324219 66.300781 C 38.324219 65.550781 38.773438 65.101562 39.449219 65.101562 C 40.125 65.101562 40.5 65.550781 40.5 66.300781 L 40.5 68.851562 Z M 56.023438 64.351562 L 54.375 64.351562 L 54.375 63 L 53.476562 63 L 53.476562 64.351562 L 52.5 64.351562 L 52.5 65.175781 L 53.476562 65.175781 L 53.476562 67.273438 C 53.476562 68.324219 53.851562 68.925781 54.976562 68.925781 C 55.425781 68.925781 55.875 68.773438 56.175781 68.550781 L 55.875 67.726562 C 55.574219 67.875 55.273438 67.949219 55.050781 67.949219 C 54.601562 67.949219 54.375 67.648438 54.375 67.199219 L 54.375 65.101562 L 56.023438 65.101562 Z M 64.351562 64.273438 C 63.824219 64.273438 63.375 64.5 63.148438 64.949219 L 63.148438 64.425781 L 62.25 64.425781 L 62.25 68.925781 L 63.148438 68.925781 L 63.148438 66.375 C 63.148438 65.625 63.523438 65.175781 64.125 65.175781 C 64.351562 65.175781 64.5 65.175781 64.726562 65.324219 L 65.023438 64.5 C 64.800781 64.273438 64.5 64.273438 64.351562 64.273438 Z M 51.75 64.726562 C 51.300781 64.425781 50.625 64.273438 49.949219 64.273438 C 48.824219 64.273438 48.148438 64.800781 48.148438 65.699219 C 48.148438 66.449219 48.675781 66.898438 49.648438 66.976562 L 50.101562 67.050781 C 50.625 67.125 50.925781 67.273438 50.925781 67.574219 C 50.925781 67.949219 50.550781 68.175781 49.875 68.175781 C 49.199219 68.175781 48.75 67.949219 48.375 67.726562 L 47.925781 68.398438 C 48.601562 68.851562 49.351562 69 49.875 69 C 51.148438 69 51.898438 68.398438 51.898438 67.574219 C 51.898438 66.824219 51.375 66.375 50.398438 66.226562 L 49.949219 66.148438 C 49.5 66.074219 49.125 66 49.125 65.699219 C 49.125 65.398438 49.5 65.175781 50.023438 65.175781 C 50.625 65.175781 51.148438 65.398438 51.449219 65.550781 Z M 65.324219 66.601562 C 65.324219 67.949219 66.226562 68.925781 67.648438 68.925781 C 68.324219 68.925781 68.773438 68.773438 69.226562 68.398438 L 68.773438 67.726562 C 68.398438 67.949219 68.023438 68.101562 67.574219 68.101562 C 66.824219 68.101562 66.226562 67.5 66.226562 66.601562 C 66.226562 65.699219 66.824219 65.101562 67.574219 65.101562 C 68.023438 65.101562 68.398438 65.25 68.773438 65.476562 L 69.226562 64.800781 C 68.773438 64.425781 68.324219 64.273438 67.648438 64.273438 C 66.226562 64.273438 65.324219 65.25 65.324219 66.601562 Z M 59.023438 64.273438 C 57.75 64.273438 56.851562 65.25 56.851562 66.601562 C 56.851562 68.023438 57.75 68.925781 59.101562 68.925781 C 59.773438 68.925781 60.375 68.773438 60.898438 68.324219 L 60.449219 67.648438 C 60.074219 67.949219 59.625 68.101562 59.175781 68.101562 C 58.574219 68.101562 57.898438 67.726562 57.824219 66.976562 L 61.199219 66.976562 C 61.199219 66.824219 61.199219 66.75 61.199219 66.601562 C 61.125 65.175781 60.300781 64.273438 59.023438 64.273438 Z M 59.023438 65.101562 C 59.699219 65.101562 60.148438 65.550781 60.226562 66.226562 L 57.824219 66.226562 C 57.898438 65.550781 58.351562 65.101562 59.023438 65.101562 Z M 46.949219 66.601562 L 46.949219 64.351562 L 46.050781 64.351562 L 46.050781 64.875 C 45.75 64.5 45.226562 64.199219 44.625 64.199219 C 43.351562 64.199219 42.449219 65.175781 42.449219 66.523438 C 42.449219 67.875 43.425781 68.851562 44.625 68.851562 C 45.226562 68.851562 45.75 68.625 46.050781 68.175781 L 46.050781 68.699219 L 46.949219 68.699219 Z M 43.273438 66.601562 C 43.273438 65.773438 43.800781 65.101562 44.699219 65.101562 C 45.523438 65.101562 46.050781 65.773438 46.050781 66.601562 C 46.050781 67.5 45.523438 68.101562 44.699219 68.101562 C 43.875 68.101562 43.273438 67.425781 43.273438 66.601562 Z M 77.851562 64.273438 C 77.324219 64.273438 76.875 64.5 76.648438 64.949219 L 76.648438 64.425781 L 75.75 64.425781 L 75.75 68.925781 L 76.648438 68.925781 L 76.648438 66.375 C 76.648438 65.625 77.023438 65.175781 77.625 65.175781 C 77.851562 65.175781 78 65.175781 78.226562 65.324219 L 78.523438 64.5 C 78.300781 64.273438 78 64.273438 77.851562 64.273438 Z M 85.050781 68.175781 C 85.125 68.175781 85.199219 68.175781 85.199219 68.175781 C 85.273438 68.175781 85.273438 68.25 85.351562 68.25 C 85.425781 68.324219 85.425781 68.324219 85.425781 68.398438 C 85.425781 68.476562 85.425781 68.476562 85.425781 68.550781 C 85.425781 68.625 85.425781 68.699219 85.425781 68.699219 C 85.425781 68.773438 85.351562 68.773438 85.351562 68.851562 C 85.273438 68.925781 85.273438 68.925781 85.199219 68.925781 C 85.125 68.925781 85.050781 68.925781 85.050781 68.925781 C 84.976562 68.925781 84.898438 68.925781 84.898438 68.925781 C 84.824219 68.925781 84.824219 68.851562 84.75 68.851562 C 84.675781 68.773438 84.675781 68.773438 84.675781 68.699219 C 84.675781 68.625 84.675781 68.625 84.675781 68.550781 C 84.675781 68.476562 84.675781 68.398438 84.675781 68.398438 C 84.675781 68.324219 84.75 68.324219 84.75 68.25 C 84.824219 68.175781 84.824219 68.175781 84.898438 68.175781 C 84.898438 68.175781 84.976562 68.175781 85.050781 68.175781 Z M 85.050781 69 C 85.125 69 85.125 69 85.199219 69 C 85.273438 69 85.273438 68.925781 85.273438 68.925781 L 85.351562 68.851562 C 85.351562 68.773438 85.351562 68.773438 85.351562 68.699219 C 85.351562 68.625 85.351562 68.625 85.351562 68.550781 C 85.351562 68.476562 85.273438 68.476562 85.273438 68.476562 L 85.199219 68.398438 C 85.125 68.398438 85.125 68.398438 85.050781 68.398438 C 84.976562 68.398438 84.976562 68.398438 84.898438 68.398438 C 84.824219 68.398438 84.824219 68.476562 84.824219 68.476562 L 84.75 68.550781 C 84.75 68.625 84.75 68.625 84.75 68.699219 C 84.75 68.773438 84.75 68.773438 84.75 68.851562 C 84.75 68.925781 84.824219 68.925781 84.824219 68.925781 L 84.898438 69 C 84.976562 69 84.976562 69 85.050781 69 Z M 85.050781 68.398438 C 85.125 68.398438 85.125 68.398438 85.199219 68.398438 L 85.273438 68.476562 L 85.273438 68.550781 C 85.273438 68.550781 85.199219 68.550781 85.199219 68.625 L 85.351562 68.773438 L 85.273438 68.773438 L 85.125 68.625 L 85.050781 68.625 L 85.050781 68.773438 L 84.976562 68.773438 L 84.976562 68.324219 L 85.050781 68.324219 Z M 84.976562 68.476562 L 85.125 68.550781 C 85.125 68.550781 85.125 68.550781 85.125 68.476562 C 85.125 68.476562 85.125 68.476562 85.125 68.398438 C 85.125 68.398438 85.125 68.398438 84.976562 68.476562 Z M 74.398438 66.601562 L 74.398438 64.351562 L 73.5 64.351562 L 73.5 64.875 C 73.199219 64.5 72.675781 64.199219 72.074219 64.199219 C 70.800781 64.199219 69.898438 65.175781 69.898438 66.523438 C 69.898438 67.875 70.875 68.851562 72.074219 68.851562 C 72.675781 68.851562 73.199219 68.625 73.5 68.175781 L 73.5 68.699219 L 74.398438 68.699219 Z M 70.800781 66.601562 C 70.800781 65.773438 71.324219 65.101562 72.226562 65.101562 C 73.050781 65.101562 73.574219 65.773438 73.574219 66.601562 C 73.574219 67.5 73.050781 68.101562 72.226562 68.101562 C 71.324219 68.101562 70.800781 67.425781 70.800781 66.601562 Z M 83.398438 66.601562 L 83.398438 62.550781 L 82.5 62.550781 L 82.5 64.875 C 82.199219 64.5 81.675781 64.199219 81.074219 64.199219 C 79.800781 64.199219 78.898438 65.175781 78.898438 66.523438 C 78.898438 67.875 79.875 68.851562 81.074219 68.851562 C 81.675781 68.851562 82.199219 68.625 82.5 68.175781 L 82.5 68.699219 L 83.398438 68.699219 Z M 79.800781 66.601562 C 79.800781 65.773438 80.324219 65.101562 81.226562 65.101562 C 82.050781 65.101562 82.574219 65.773438 82.574219 66.601562 C 82.574219 67.5 82.050781 68.101562 81.226562 68.101562 C 80.324219 68.101562 79.800781 67.425781 79.800781 66.601562 Z M 79.800781 66.601562 "/>
</clipPath>
<clipPath id="clip5">
  <path d="M 50.699219 30.375 L 66.898438 30.375 L 66.898438 56.851562 L 50.699219 56.851562 Z M 50.699219 30.375 "/>
</clipPath>
<clipPath id="clip6">
  <path d="M 31 26 L 59 26 L 59 61 L 31 61 Z M 31 26 "/>
</clipPath>
<clipPath id="clip7">
  <path d="M 52.425781 43.574219 C 52.425781 38.175781 54.976562 33.449219 58.875 30.375 C 56.023438 28.125 52.425781 26.773438 48.449219 26.773438 C 39.148438 26.773438 31.648438 34.273438 31.648438 43.574219 C 31.648438 52.875 39.148438 60.375 48.449219 60.375 C 52.351562 60.375 55.949219 59.023438 58.875 56.773438 C 54.898438 53.699219 52.425781 48.898438 52.425781 43.574219 "/>
</clipPath>
<clipPath id="clip8">
  <path d="M 84 53 L 86 53 L 86 54 L 84 54 Z M 84 53 "/>
</clipPath>
<clipPath id="clip9">
  <path d="M 84.449219 54 L 84.449219 53.476562 L 84.675781 53.476562 L 84.675781 53.398438 L 84.148438 53.398438 L 84.148438 53.476562 L 84.375 53.476562 Z M 85.5 54 L 85.5 53.324219 L 85.351562 53.324219 L 85.125 53.773438 L 84.898438 53.324219 L 84.75 53.324219 L 84.75 54 L 84.898438 54 L 84.898438 53.476562 L 85.050781 53.925781 L 85.199219 53.925781 L 85.351562 53.476562 L 85.351562 54 Z M 85.5 54 "/>
</clipPath>
<clipPath id="clip10">
  <path d="M 58 26 L 87 26 L 87 61 L 58 61 Z M 58 26 "/>
</clipPath>
<clipPath id="clip11">
  <path d="M 86.023438 43.574219 C 86.023438 52.875 78.523438 60.375 69.226562 60.375 C 65.324219 60.375 61.726562 59.023438 58.800781 56.773438 C 62.699219 53.699219 65.25 48.898438 65.25 43.574219 C 65.25 38.175781 62.699219 33.449219 58.800781 30.375 C 61.648438 28.125 65.25 26.773438 69.226562 26.773438 C 78.523438 26.773438 86.023438 34.273438 86.023438 43.574219 "/>
</clipPath>
</defs>
<g id="surface1">
<path style=" stroke:none;fill-rule:nonzero;fill:rgb(0%,0%,0%);fill-opacity:1;" d="M 10.5 22.5 C 10.5 20.023438 12.523438 18 15 18 L 102 18 C 104.476562 18 106.5 20.023438 106.5 22.5 L 106.5 73.5 C 106.5 75.976562 104.476562 78 102 78 L 15 78 C 12.523438 78 10.5 75.976562 10.5 73.5 Z M 10.5 22.5 "/>
<g clip-path="url(#clip1)" clip-rule="nonzero">
<g clip-path="url(#clip2)" clip-rule="nonzero">
<path style="fill-rule:nonzero;fill:rgb(0%,0%,0%);fill-opacity:1;stroke-width:2;stroke-linecap:butt;stroke-linejoin:miter;stroke:rgb(0%,0%,0%);stroke-opacity:1;stroke-miterlimit:10;" d="M 14 30 C 14 26.697917 16.697917 24 20 24 L 136 24 C 139.302083 24 142 26.697917 142 30 L 142 98 C 142 101.302083 139.302083 104 136 104 L 20 104 C 16.697917 104 14 101.302083 14 98 Z M 14 30 " transform="matrix(0.75,0,0,0.75,0,0)"/>
</g>
</g>
<g clip-path="url(#clip3)" clip-rule="nonzero">
<g clip-path="url(#clip4)" clip-rule="nonzero">
<path style=" stroke:none;fill-rule:nonzero;fill:rgb(100%,100%,100%);fill-opacity:1;" d="M 30.675781 58.800781 L 89.25 58.800781 L 89.25 72.824219 L 30.675781 72.824219 Z M 30.675781 58.800781 "/>
</g>
</g>
<g clip-path="url(#clip5)" clip-rule="nonzero">
<path style=" stroke:none;fill-rule:nonzero;fill:rgb(100%,37.254902%,0%);fill-opacity:1;" d="M 46.949219 26.625 L 70.648438 26.625 L 70.648438 60.601562 L 46.949219 60.601562 Z M 46.949219 26.625 "/>
</g>
<g clip-path="url(#clip6)" clip-rule="nonzero">
<g clip-path="url(#clip7)" clip-rule="nonzero">
<path style=" stroke:none;fill-rule:nonzero;fill:rgb(92.156863%,0%,10.588235%);fill-opacity:1;" d="M 27.824219 23.023438 L 62.550781 23.023438 L 62.550781 64.199219 L 27.824219 64.199219 Z M 27.824219 23.023438 "/>
</g>
</g>
<g clip-path="url(#clip8)" clip-rule="nonzero">
<g clip-path="url(#clip9)" clip-rule="nonzero">
<path style=" stroke:none;fill-rule:nonzero;fill:rgb(96.862745%,61.960784%,10.588235%);fill-opacity:1;" d="M 80.324219 49.574219 L 89.25 49.574219 L 89.25 57.75 L 80.324219 57.75 Z M 80.324219 49.574219 "/>
</g>
</g>
<g clip-path="url(#clip10)" clip-rule="nonzero">
<g clip-path="url(#clip11)" clip-rule="nonzero">
<path style=" stroke:none;fill-rule:nonzero;fill:rgb(96.862745%,61.960784%,10.588235%);fill-opacity:1;" d="M 55.050781 23.023438 L 89.773438 23.023438 L 89.773438 64.199219 L 55.050781 64.199219 Z M 55.050781 23.023438 "/>
</g>
</g>
</g>
</svg>
