<?xml version="1.0" encoding="UTF-8"?>
<svg xmlns="http://www.w3.org/2000/svg" xmlns:xlink="http://www.w3.org/1999/xlink" width="39px" height="32px" viewBox="0 0 39 39" version="1.1">
<g id="surface1">
<path style=" stroke:none;fill-rule:nonzero;fill:rgb(0.392157%,0.392157%,0.392157%);fill-opacity:1;" d="M 23.074219 9.261719 L 23.074219 11.375 C 23.480469 11.375 23.726562 11.210938 23.96875 11.050781 C 24.210938 10.886719 24.292969 10.644531 24.292969 10.398438 C 24.292969 10.15625 24.210938 9.914062 24.050781 9.75 C 23.886719 9.507812 23.5625 9.34375 23.074219 9.261719 Z M 23.074219 9.261719 "/>
<path style=" stroke:none;fill-rule:nonzero;fill:rgb(0.392157%,0.392157%,0.392157%);fill-opacity:1;" d="M 21.289062 6.582031 C 21.289062 6.824219 21.367188 7.070312 21.53125 7.230469 C 21.613281 7.3125 21.9375 7.476562 22.34375 7.636719 L 22.34375 5.605469 C 22.019531 5.605469 21.695312 5.769531 21.53125 5.929688 C 21.367188 6.09375 21.289062 6.335938 21.289062 6.582031 Z M 21.289062 6.582031 "/>
<path style=" stroke:none;fill-rule:nonzero;fill:rgb(0.392157%,0.392157%,0.392157%);fill-opacity:1;" d="M 30.226562 15.195312 C 28.4375 17.304688 25.675781 18.6875 22.667969 18.6875 C 18.605469 18.6875 15.195312 16.332031 13.570312 12.917969 C 11.050781 11.863281 8.695312 12.1875 8.695312 12.1875 L 10.726562 15.195312 C 7.960938 16.820312 5.929688 19.09375 5.117188 21.773438 L 2.679688 21.773438 L 2.679688 27.460938 L 5.117188 27.460938 C 6.09375 30.386719 8.449219 32.90625 11.617188 34.53125 L 11.617188 38.105469 L 15.679688 38.105469 L 15.679688 35.992188 C 17.226562 36.398438 18.851562 36.5625 20.554688 36.5625 C 22.261719 36.5625 23.886719 36.398438 25.429688 35.992188 L 25.429688 38.105469 L 29.492188 38.105469 L 29.492188 34.53125 C 33.71875 32.335938 36.480469 28.761719 36.480469 24.617188 C 36.398438 20.71875 33.960938 17.386719 30.226562 15.195312 Z M 10.644531 22.914062 C 9.667969 22.914062 8.855469 22.101562 8.855469 21.125 C 8.855469 20.148438 9.667969 19.335938 10.644531 19.335938 C 11.617188 19.335938 12.429688 20.148438 12.429688 21.125 C 12.429688 22.101562 11.617188 22.914062 10.644531 22.914062 Z M 10.644531 22.914062 "/>
<path style=" stroke:none;fill-rule:nonzero;fill:rgb(0.392157%,0.392157%,0.392157%);fill-opacity:1;" d="M 22.667969 0.894531 C 18.445312 0.894531 14.949219 4.304688 14.949219 8.613281 C 14.949219 12.835938 18.363281 16.332031 22.667969 16.332031 C 26.976562 16.332031 30.386719 12.917969 30.386719 8.613281 C 30.304688 4.304688 26.894531 0.894531 22.667969 0.894531 Z M 25.023438 11.863281 C 24.539062 12.269531 23.886719 12.511719 23.15625 12.59375 L 23.15625 13.40625 L 22.425781 13.40625 L 22.425781 12.59375 C 21.367188 12.511719 20.394531 12.105469 19.582031 11.375 L 20.394531 10.398438 C 21.042969 10.96875 21.695312 11.292969 22.425781 11.375 L 22.425781 9.101562 C 21.53125 8.855469 20.882812 8.613281 20.554688 8.289062 C 20.230469 7.960938 19.988281 7.476562 19.988281 6.742188 C 19.988281 6.09375 20.230469 5.523438 20.71875 5.117188 C 21.207031 4.710938 21.773438 4.46875 22.507812 4.386719 L 22.507812 3.820312 L 23.238281 3.820312 L 23.238281 4.386719 C 24.050781 4.46875 24.863281 4.710938 25.675781 5.28125 L 24.945312 6.335938 C 24.457031 6.011719 23.886719 5.769531 23.320312 5.6875 L 23.320312 7.882812 C 24.210938 8.125 24.863281 8.367188 25.269531 8.695312 C 25.675781 9.019531 25.917969 9.585938 25.917969 10.238281 C 25.757812 10.886719 25.511719 11.457031 25.023438 11.863281 Z M 25.023438 11.863281 "/>
</g>
</svg>
