<?xml version="1.0" encoding="UTF-8"?>
<svg xmlns="http://www.w3.org/2000/svg" xmlns:xlink="http://www.w3.org/1999/xlink" width="39px" height="30px" viewBox="0 0 39 39" version="1.1">
<g id="surface1">
<path style=" stroke:none;fill-rule:nonzero;fill:rgb(0%,0%,0%);fill-opacity:1;" d="M 36.261719 17.003906 C 36.113281 12.75 34.390625 8.769531 31.363281 5.746094 C 28.195312 2.574219 23.980469 0.828125 19.5 0.828125 C 10.453125 0.828125 3.058594 8.03125 2.738281 17.003906 C 1.359375 17.617188 0.390625 19 0.390625 20.605469 L 0.390625 25.03125 C 0.390625 27.203125 2.160156 28.972656 4.332031 28.972656 C 5.738281 28.972656 6.882812 27.828125 6.882812 26.421875 L 6.882812 19.214844 C 6.882812 17.894531 5.871094 16.816406 4.582031 16.6875 C 5.058594 8.871094 11.566406 2.65625 19.5 2.65625 C 23.492188 2.65625 27.246094 4.214844 30.074219 7.039062 C 32.667969 9.632812 34.1875 13.015625 34.414062 16.6875 C 33.128906 16.816406 32.117188 17.894531 32.117188 19.214844 L 32.117188 26.421875 C 32.117188 27.753906 33.144531 28.835938 34.449219 28.949219 L 34.449219 30.769531 C 34.449219 32.820312 32.78125 34.488281 30.726562 34.488281 L 27.972656 34.488281 C 27.839844 34.105469 27.625 33.746094 27.328125 33.449219 C 26.808594 32.925781 26.113281 32.640625 25.375 32.640625 L 22.535156 32.640625 C 22.125 32.640625 21.734375 32.726562 21.375 32.890625 C 20.398438 33.339844 19.765625 34.328125 19.765625 35.402344 C 19.765625 36.144531 20.054688 36.839844 20.578125 37.359375 C 21.101562 37.882812 21.792969 38.171875 22.535156 38.171875 L 25.375 38.171875 C 26.550781 38.171875 27.589844 37.410156 27.976562 36.316406 L 30.726562 36.316406 C 33.789062 36.316406 36.277344 33.828125 36.277344 30.769531 L 36.277344 28.625 C 37.648438 28.007812 38.609375 26.628906 38.609375 25.03125 L 38.609375 20.605469 C 38.609375 19 37.640625 17.617188 36.261719 17.003906 Z M 5.054688 19.214844 L 5.054688 26.421875 C 5.054688 26.820312 4.730469 27.144531 4.332031 27.144531 C 3.167969 27.144531 2.21875 26.195312 2.21875 25.03125 L 2.21875 20.605469 C 2.21875 19.4375 3.167969 18.492188 4.332031 18.492188 C 4.730469 18.492188 5.054688 18.816406 5.054688 19.214844 Z M 26.289062 35.601562 C 26.199219 36.03125 25.8125 36.34375 25.371094 36.34375 L 22.53125 36.34375 C 22.28125 36.34375 22.046875 36.246094 21.871094 36.066406 C 21.691406 35.890625 21.59375 35.65625 21.59375 35.40625 C 21.59375 35.039062 21.808594 34.707031 22.144531 34.554688 C 22.261719 34.496094 22.394531 34.46875 22.53125 34.46875 L 25.371094 34.46875 C 25.621094 34.46875 25.855469 34.566406 26.035156 34.742188 C 26.210938 34.921875 26.308594 35.15625 26.308594 35.40625 C 26.308594 35.472656 26.304688 35.539062 26.289062 35.601562 Z M 36.78125 25.03125 C 36.78125 26.195312 35.832031 27.144531 34.667969 27.144531 C 34.269531 27.144531 33.945312 26.820312 33.945312 26.421875 L 33.945312 19.214844 C 33.945312 18.816406 34.269531 18.492188 34.667969 18.492188 C 35.832031 18.492188 36.78125 19.441406 36.78125 20.605469 Z M 36.78125 25.03125 "/>
<path style=" stroke:none;fill-rule:nonzero;fill:rgb(0%,0%,0%);fill-opacity:1;" d="M 25.417969 25.34375 C 27.554688 25.34375 29.292969 23.605469 29.292969 21.472656 L 29.292969 13.578125 C 29.292969 12.546875 28.886719 11.574219 28.15625 10.84375 C 27.421875 10.109375 26.453125 9.707031 25.417969 9.707031 L 13.582031 9.707031 C 11.445312 9.707031 9.707031 11.445312 9.707031 13.578125 L 9.707031 21.472656 C 9.707031 23.609375 11.445312 25.34375 13.582031 25.34375 L 13.652344 25.34375 L 13.652344 27.390625 C 13.652344 28.171875 14.117188 28.863281 14.835938 29.15625 C 15.070312 29.246094 15.3125 29.292969 15.550781 29.292969 C 16.046875 29.292969 16.53125 29.097656 16.886719 28.730469 L 20.289062 25.34375 Z M 19.269531 23.78125 L 15.585938 27.445312 C 15.570312 27.460938 15.558594 27.472656 15.523438 27.460938 C 15.480469 27.441406 15.480469 27.414062 15.480469 27.390625 L 15.480469 24.429688 C 15.480469 23.925781 15.074219 23.515625 14.566406 23.515625 L 13.582031 23.515625 C 12.453125 23.515625 11.535156 22.597656 11.535156 21.472656 L 11.535156 13.578125 C 11.535156 12.453125 12.453125 11.535156 13.582031 11.535156 L 25.417969 11.535156 C 25.964844 11.535156 26.476562 11.75 26.863281 12.136719 C 27.25 12.523438 27.464844 13.035156 27.464844 13.578125 L 27.464844 21.472656 C 27.464844 22.601562 26.546875 23.515625 25.417969 23.515625 L 19.914062 23.515625 C 19.671875 23.515625 19.441406 23.613281 19.269531 23.78125 Z M 19.269531 23.78125 "/>
<path style=" stroke:none;fill-rule:nonzero;fill:rgb(0%,0%,0%);fill-opacity:1;" d="M 15.058594 16.324219 C 14.316406 16.324219 13.710938 16.929688 13.710938 17.671875 C 13.710938 18.414062 14.316406 19.019531 15.058594 19.019531 C 15.804688 19.019531 16.410156 18.414062 16.410156 17.671875 C 16.410156 16.929688 15.804688 16.324219 15.058594 16.324219 Z M 15.058594 16.324219 "/>
<path style=" stroke:none;fill-rule:nonzero;fill:rgb(0%,0%,0%);fill-opacity:1;" d="M 19.5 16.324219 C 18.757812 16.324219 18.152344 16.929688 18.152344 17.671875 C 18.152344 18.414062 18.757812 19.019531 19.5 19.019531 C 20.242188 19.019531 20.847656 18.414062 20.847656 17.671875 C 20.847656 16.929688 20.242188 16.324219 19.5 16.324219 Z M 19.5 16.324219 "/>
<path style=" stroke:none;fill-rule:nonzero;fill:rgb(0%,0%,0%);fill-opacity:1;" d="M 23.9375 16.324219 C 23.195312 16.324219 22.589844 16.929688 22.589844 17.671875 C 22.589844 18.414062 23.195312 19.019531 23.9375 19.019531 C 24.683594 19.019531 25.289062 18.414062 25.289062 17.671875 C 25.289062 16.929688 24.683594 16.324219 23.9375 16.324219 Z M 23.9375 16.324219 "/>
</g>
</svg>
