<?xml version="1.0" encoding="UTF-8"?>
<svg xmlns="http://www.w3.org/2000/svg" xmlns:xlink="http://www.w3.org/1999/xlink" width="39" height="32" viewBox="0 0 117 96" version="1.1">
<defs>
<clipPath id="clip1">
  <path d="M 10 18 L 107 18 L 107 78 L 10 78 Z M 10 18 "/>
</clipPath>
<clipPath id="clip2">
  <path d="M 10.5 22.5 C 10.5 20.023438 12.523438 18 15 18 L 102 18 C 104.476562 18 106.5 20.023438 106.5 22.5 L 106.5 73.5 C 106.5 75.976562 104.476562 78 102 78 L 15 78 C 12.523438 78 10.5 75.976562 10.5 73.5 Z M 10.5 22.5 "/>
</clipPath>
<clipPath id="clip3">
  <path d="M 14.476562 66 L 102.449219 66 L 102.449219 74.023438 L 14.476562 74.023438 Z M 14.476562 66 "/>
</clipPath>
<clipPath id="clip4">
  <path d="M 14.476562 21.976562 L 102.449219 21.976562 L 102.449219 30 L 14.476562 30 Z M 14.476562 21.976562 "/>
</clipPath>
<clipPath id="clip5">
  <path d="M 24 36 L 94 36 L 94 60 L 24 60 Z M 24 36 "/>
</clipPath>
<clipPath id="clip6">
  <path d="M 58.648438 37.425781 L 54.074219 58.949219 L 48.523438 58.949219 L 53.101562 37.425781 Z M 82.199219 51.300781 L 85.125 43.199219 L 86.851562 51.300781 Z M 88.425781 58.949219 L 93.601562 58.949219 L 89.101562 37.425781 L 84.300781 37.425781 C 83.25 37.425781 82.273438 38.023438 81.898438 39 L 73.5 58.949219 L 79.351562 58.949219 L 80.476562 55.726562 L 87.675781 55.726562 Z M 73.875 51.898438 C 73.875 46.199219 66 45.898438 66.074219 43.351562 C 66.074219 42.523438 66.824219 41.773438 68.476562 41.550781 C 70.351562 41.398438 72.300781 41.699219 74.023438 42.523438 L 75 37.949219 C 73.351562 37.273438 71.550781 36.976562 69.75 36.976562 C 64.199219 36.976562 60.375 39.898438 60.300781 44.101562 C 60.226562 47.25 63.074219 48.898438 65.175781 49.949219 C 67.273438 51 68.101562 51.75 68.101562 52.648438 C 68.101562 54.074219 66.300781 54.75 64.726562 54.75 C 62.699219 54.824219 60.75 54.300781 58.949219 53.398438 L 57.898438 58.125 C 59.851562 58.949219 61.949219 59.324219 64.125 59.25 C 69.976562 59.324219 73.800781 56.398438 73.875 51.898438 Z M 50.699219 37.425781 L 41.699219 58.949219 L 35.773438 58.949219 L 31.351562 41.699219 C 31.050781 40.648438 30.824219 40.273438 30.074219 39.824219 C 28.351562 39 26.476562 38.398438 24.523438 38.023438 L 24.675781 37.425781 L 34.199219 37.425781 C 35.476562 37.425781 36.601562 38.398438 36.75 39.675781 L 39 52.050781 L 44.773438 37.351562 L 50.699219 37.351562 Z M 50.699219 37.425781 "/>
</clipPath>
</defs>
<g id="surface1">
<path style=" stroke:none;fill-rule:evenodd;fill:rgb(100%,100%,100%);fill-opacity:1;" d="M 10.5 22.5 C 10.5 20.023438 12.523438 18 15 18 L 102 18 C 104.476562 18 106.5 20.023438 106.5 22.5 L 106.5 73.5 C 106.5 75.976562 104.476562 78 102 78 L 15 78 C 12.523438 78 10.5 75.976562 10.5 73.5 Z M 10.5 22.5 "/>
<g clip-path="url(#clip1)" clip-rule="nonzero">
<g clip-path="url(#clip2)" clip-rule="nonzero">
<path style="fill-rule:nonzero;fill:rgb(100%,100%,100%);fill-opacity:1;stroke-width:2;stroke-linecap:butt;stroke-linejoin:miter;stroke:rgb(79.607843%,79.607843%,79.607843%);stroke-opacity:1;stroke-miterlimit:10;" d="M 14 30 C 14 26.697917 16.697917 24 20 24 L 136 24 C 139.302083 24 142 26.697917 142 30 L 142 98 C 142 101.302083 139.302083 104 136 104 L 20 104 C 16.697917 104 14 101.302083 14 98 Z M 14 30 " transform="matrix(0.75,0,0,0.75,0,0)"/>
</g>
</g>
<g clip-path="url(#clip3)" clip-rule="nonzero">
<path style=" stroke:none;fill-rule:nonzero;fill:rgb(96.862745%,71.372549%,0%);fill-opacity:1;" d="M 10.726562 62.25 L 106.199219 62.25 L 106.199219 77.773438 L 10.726562 77.773438 Z M 10.726562 62.25 "/>
</g>
<g clip-path="url(#clip4)" clip-rule="nonzero">
<path style=" stroke:none;fill-rule:nonzero;fill:rgb(10.196078%,12.156863%,44.313725%);fill-opacity:1;" d="M 10.726562 18.226562 L 106.199219 18.226562 L 106.199219 33.75 L 10.726562 33.75 Z M 10.726562 18.226562 "/>
</g>
<g clip-path="url(#clip5)" clip-rule="nonzero">
<g clip-path="url(#clip6)" clip-rule="nonzero">
<path style=" stroke:none;fill-rule:nonzero;fill:rgb(10.196078%,12.156863%,44.313725%);fill-opacity:1;" d="M 20.773438 33.226562 L 97.351562 33.226562 L 97.351562 63 L 20.773438 63 Z M 20.773438 33.226562 "/>
</g>
</g>
</g>
</svg>
