<svg xmlns="http://www.w3.org/2000/svg" xmlns:xlink="http://www.w3.org/1999/xlink" width="40" zoomAndPan="magnify" viewBox="0 0 30 30.000001" height="40" preserveAspectRatio="xMidYMid meet" version="1.0"><defs><clipPath id="d4ba0d8f59"><path d="M 1.347656 0.789062 L 28.929688 0.789062 L 28.929688 28.371094 L 1.347656 28.371094 Z M 1.347656 0.789062 " clip-rule="nonzero"/></clipPath></defs><g clip-path="url(#d4ba0d8f59)"><path fill="#000000" d="M 10.082031 7.863281 L 19.464844 7.863281 C 19.003906 8.195312 18.644531 8.613281 18.382812 9.117188 C 18.125 9.621094 17.996094 10.15625 17.996094 10.722656 L 17.996094 28.371094 C 17.570312 28.371094 17.152344 28.328125 16.738281 28.246094 C 16.324219 28.164062 15.921875 28.042969 15.53125 27.882812 C 15.140625 27.722656 14.769531 27.523438 14.417969 27.289062 C 14.066406 27.054688 13.738281 26.789062 13.441406 26.492188 C 13.140625 26.195312 12.875 25.871094 12.640625 25.523438 C 12.40625 25.171875 12.207031 24.804688 12.042969 24.414062 C 11.882812 24.027344 11.761719 23.625 11.679688 23.210938 C 11.59375 22.800781 11.554688 22.382812 11.554688 21.960938 L 11.554688 10.722656 C 11.554688 10.15625 11.425781 9.621094 11.164062 9.117188 C 10.90625 8.613281 10.542969 8.195312 10.082031 7.863281 Z M 25.761719 3.25 C 23.953125 1.5625 21.691406 0.789062 19.859375 0.789062 L 1.363281 0.789062 C 1.359375 1.640625 1.523438 2.457031 1.851562 3.242188 C 2.179688 4.027344 2.644531 4.722656 3.25 5.320312 C 3.8125 5.882812 4.460938 6.328125 5.191406 6.648438 C 5.921875 6.972656 6.6875 7.152344 7.484375 7.191406 L 21.675781 7.191406 L 21.675781 7.199219 C 22.398438 7.210938 23.109375 7.3125 23.808594 7.5 C 24.507812 7.6875 25.175781 7.957031 25.804688 8.308594 C 26.4375 8.660156 27.015625 9.082031 27.542969 9.574219 C 28.070312 10.070312 28.527344 10.621094 28.917969 11.226562 C 28.917969 7.550781 27.566406 4.941406 25.761719 3.25 Z M 25.761719 3.25 " fill-opacity="1" fill-rule="nonzero"/></g></svg>