<svg xmlns="http://www.w3.org/2000/svg" width="40vw" xmlns:xlink="http://www.w3.org/1999/xlink" zoomAndPan="magnify" viewBox="0 0 150 30.000001" preserveAspectRatio="xMidYMid meet" version="1.0"><defs><g/><clipPath id="9420320845"><path d="M 6.707031 0.601562 L 34.285156 0.601562 L 34.285156 28.179688 L 6.707031 28.179688 Z M 6.707031 0.601562 " clip-rule="nonzero"/></clipPath></defs><g clip-path="url(#9420320845)"><path fill="#ffffff" d="M 15.4375 7.675781 L 24.824219 7.675781 C 24.363281 8.003906 24 8.421875 23.742188 8.925781 C 23.480469 9.433594 23.351562 9.96875 23.351562 10.535156 L 23.351562 28.179688 C 22.929688 28.179688 22.511719 28.140625 22.097656 28.058594 C 21.679688 27.972656 21.277344 27.851562 20.886719 27.691406 C 20.496094 27.53125 20.125 27.332031 19.773438 27.097656 C 19.421875 26.867188 19.097656 26.601562 18.796875 26.300781 C 18.496094 26.003906 18.230469 25.679688 17.996094 25.332031 C 17.761719 24.980469 17.5625 24.613281 17.398438 24.222656 C 17.238281 23.835938 17.117188 23.433594 17.035156 23.023438 C 16.949219 22.609375 16.910156 22.191406 16.910156 21.773438 L 16.910156 10.53125 C 16.910156 9.964844 16.78125 9.429688 16.519531 8.925781 C 16.261719 8.421875 15.898438 8.003906 15.4375 7.675781 Z M 31.121094 3.0625 C 29.316406 1.371094 27.050781 0.601562 25.21875 0.601562 L 6.714844 0.601562 C 6.714844 1.449219 6.875 2.265625 7.203125 3.054688 C 7.53125 3.839844 7.996094 4.53125 8.601562 5.132812 C 9.167969 5.695312 9.816406 6.136719 10.546875 6.457031 C 11.277344 6.78125 12.039062 6.960938 12.839844 7 L 27.035156 7 L 27.035156 7.011719 C 27.757812 7.023438 28.46875 7.121094 29.167969 7.308594 C 29.867188 7.496094 30.535156 7.765625 31.167969 8.117188 C 31.796875 8.46875 32.378906 8.890625 32.90625 9.386719 C 33.429688 9.878906 33.890625 10.429688 34.277344 11.039062 C 34.277344 7.359375 32.929688 4.75 31.121094 3.0625 Z M 31.121094 3.0625 " fill-opacity="1" fill-rule="nonzero"/></g><g fill="#ffffff" fill-opacity="1"><g transform="translate(43.156604, 24.351811)"><g><path d="M 1.140625 0 L 1.140625 -13.4375 L 4.921875 -13.4375 L 4.921875 0 Z M 1.140625 0 "/></g></g></g><g fill="#ffffff" fill-opacity="1"><g transform="translate(53.947427, 24.351811)"><g/></g></g><g fill="#ffffff" fill-opacity="1"><g transform="translate(63.640438, 24.351811)"><g><path d="M 12.171875 -13.4375 L 11.625 -10.140625 L 7.6875 -10.140625 L 7.6875 0 L 3.890625 0 L 3.890625 -10.140625 L -0.296875 -10.140625 L -0.296875 -13.4375 Z M 12.171875 -13.4375 "/></g></g></g><g fill="#ffffff" fill-opacity="1"><g transform="translate(79.939235, 24.351811)"><g/></g></g><g fill="#ffffff" fill-opacity="1"><g transform="translate(89.632244, 24.351811)"><g><path d="M -0.734375 0 L 5.1875 -13.4375 L 8.328125 -13.4375 L 14.046875 0 L 10.21875 0 L 9.265625 -2.40625 L 4.0625 -2.40625 L 3.078125 0 Z M 5.359375 -5.53125 L 8.015625 -5.53125 L 6.71875 -8.8125 Z M 5.359375 -5.53125 "/></g></g></g><g fill="#ffffff" fill-opacity="1"><g transform="translate(107.7481, 24.351811)"><g/></g></g><g fill="#ffffff" fill-opacity="1"><g transform="translate(117.441109, 24.351811)"><g><path d="M 9.703125 -13.4375 L 13.34375 -13.4375 L 13.34375 0 L 9.96875 0 L 4.765625 -7.234375 L 4.765625 0 L 1.140625 0 L 1.140625 -13.4375 L 4.5 -13.4375 L 9.703125 -6.21875 Z M 9.703125 -13.4375 "/></g></g></g></svg>