<svg
                            className="svg"
                            enable-background="new 0 0 64 64"
                            height="30px"
                            fill="black"
                            id="Layer_1"
                            version="1.1"
                            viewBox="0 0 64 64"
                            width="30px"
                            xml:space="preserve"
                            xmlns="http://www.w3.org/2000/svg"
                            xmlns:xlink="http://www.w3.org/1999/xlink"
                        >
                            <g>
                                <circle cx="28.599" cy="51.017" r="4.582" />
                                <circle cx="45.957" cy="51.077" r="4.582" />
                                <path d="M20.773,19.454L16.938,8.342H9.336c-1.381,0-2.5,1.119-2.5,2.5s1.119,2.5,2.5,2.5h4.039L17.05,23.99h-3.234   c-1.105,0-2,0.896-2,2s0.895,2,2,2h0.109h4.506h6.994c1.104,0,2,0.896,2,2s-0.896,2-2,2h-5.614h-3.372c-1.104,0-2,0.896-2,2   c0,1.084,0.865,1.962,1.941,1.994h9.044c1.104,0,2,0.896,2,2c0,1.105-0.896,2-2,2H22.57l1.532,4.438h22.904   c2.244,0,4.347-1.643,4.889-3.82l5.27-21.147H20.773z" />
                            </g>
                        </svg>