<svg wodth="40px" height="40px" viewBox="0 0 64 64" xml:space="preserve" xmlns="http://www.w3.org/2000/svg"><circle cx="28.599" cy="51.017" r="4.582" fill="#ffffff" class="fill-000000"></circle><circle cx="45.957" cy="51.077" r="4.582" fill="#ffffff" class="fill-000000"></circle><path d="M20.773 19.454 16.938 8.342H9.336a2.5 2.5 0 1 0 0 5h4.039L17.05 23.99h-3.234a2 2 0 0 0 0 4h11.609a2 2 0 0 1 0 4h-8.986a1.997 1.997 0 0 0-.059 3.994h9.044a2 2 0 0 1 0 4H22.57l1.532 4.438h22.904c2.244 0 4.347-1.643 4.889-3.82l5.27-21.147H20.773z" fill="#ffffff" class="fill-000000"></path></svg>