<svg width="35px" height="25px" viewBox="0 0 32 32" xml:space="preserve" xmlns="http://www.w3.org/2000/svg"><path d="M27.436 6C25.861 5.484 19.373 2.466 18 1.743 16.905 1.166 16.553 1 16 1s-.905.166-2 .743C12.627 2.466 6.139 5.484 4.564 6 3.643 6.302 3 7.049 3 8v11c0 3.188 8.297 12 13 12s13-8.813 13-12V8c0-.951-.643-1.698-1.564-2zM25 18.769C24.223 21.131 18.125 27 16 27s-8.223-5.869-9-8.231V9.351c1.344-.507 7.766-3.46 9-4.147 1.234.688 7.656 3.641 9 4.147v9.418zm-16-8.09v7.709c.885 1.844 5.413 6.125 7 6.589 1.587-.464 6.115-4.745 7-6.589v-7.709a185.849 185.849 0 0 1-7-3.227c-1.609.791-4.691 2.23-7 3.227zM21 13l-6 7-4-5 1-1 3 2 5-4 1 1z" fill="#42e02d" class="fill-000000"></path></svg>